<svg width="512" height="512" viewBox="0 0 512 512" xmlns="http://www.w3.org/2000/svg">
    <defs>
        <linearGradient id="gradient" x1="0%" y1="0%" x2="100%" y2="100%">
            <stop offset="0%" stop-color="#6366F1"/>
            <stop offset="100%" stop-color="#8B5CF6"/>
        </linearGradient>
    </defs>
    <rect width="512" height="512" rx="96" fill="url(#gradient)"/>
    <circle cx="256" cy="256" r="140" fill="white" opacity="0.9"/>
    <path d="M256 176c-44.2 0-80 35.8-80 80s35.8 80 80 80 80-35.8 80-80-35.8-80-80-80zm0 144c-35.3 0-64-28.7-64-64s28.7-64 64-64 64 28.7 64 64-28.7 64-64 64z" fill="#6366F1"/>
    <path d="M336 256c0 44.2-35.8 80-80 80s-80-35.8-80-80 35.8-80 80-80 80 35.8 80 80z" fill="none" stroke="#8B5CF6" stroke-width="24"/>
</svg>